<svg width="14" height="14" viewBox="0 0 14 14" fill="none" xmlns="http://www.w3.org/2000/svg">
<g clip-path="url(#clip0_83_146)">
<path d="M6.89355 4.78298L8.89764 6.78707L8.90719 6.68209C8.90719 5.62914 8.05148 4.77344 6.99853 4.77344L6.89355 4.78298Z" fill="#B7C1C5"/>
<path d="M6.99916 3.50118C8.75513 3.50118 10.1803 4.92632 10.1803 6.68229C10.1803 7.09265 10.0976 7.48392 9.95442 7.84338L11.8154 9.70432C12.776 8.90268 13.5331 7.86565 14.0008 6.68229C12.8969 3.8893 10.1835 1.91064 6.99919 1.91064C6.10847 1.91064 5.25596 2.06969 4.46387 2.35599L5.8381 3.72703C6.19752 3.58707 6.5888 3.50118 6.99916 3.50118Z" fill="#B7C1C5"/>
<path d="M0.636209 1.76723L2.08679 3.21781L2.37628 3.5073C1.32652 4.32803 0.496251 5.41915 0 6.68203C1.10067 9.47502 3.81731 11.4537 6.99842 11.4537C7.98457 11.4537 8.92616 11.2628 9.78825 10.9161L10.0587 11.1865L11.9132 13.0442L12.7244 12.2362L1.44739 0.956055L0.636209 1.76723ZM4.15452 5.28235L5.13748 6.26531C5.10885 6.40211 5.08976 6.53888 5.08976 6.68203C5.08976 7.73498 5.94547 8.59068 6.99842 8.59068C7.14157 8.59068 7.27837 8.5716 7.41197 8.54297L8.39493 9.52592C7.97183 9.73588 7.50105 9.86313 6.99842 9.86313C5.24246 9.86313 3.81731 8.43799 3.81731 6.68203C3.81731 6.17942 3.94457 5.70861 4.15452 5.28235Z" fill="#B7C1C5"/>
</g>
<defs>
<clipPath id="clip0_83_146">
<rect width="14" height="14" fill="white"/>
</clipPath>
</defs>
</svg>
