<svg width="20" height="20" xmlns="http://www.w3.org/2000/svg">

    <g>
     <title>Layer 1</title>
     <g stroke="null">
      <path stroke="#0F303F" d="m12.64943,9.24326l-11.64943,0m0,0l3.69823,-4.24326m-3.69823,4.24326l3.69823,4.13605"/>
     </g>
     <g>
      <mask fill="white" id="svg_16">
       <path d="m15.1782,12.0312c0.7357,-1.0019 1.0968,-2.22676 1.0968,-3.8937c0,-4.49422 -3.6433,-8.1375 -8.1375,-8.1375c-4.49422,0 -8.1375,3.64328 -8.1375,8.1375c0,1.58574 0.39216,2.8477 1.11883,3.8937l-0.02812,0l6.69734,8.9688l7.07815,-8.5819c0.0836,-0.0948 0.1634,-0.1915 0.2395,-0.2903l0.0796,-0.0966l-0.0071,0z" clipRule="evenodd" fillRule="evenodd"/>
      </mask>
      <path mask="url(#svg_16)" fill="#0F303F" d="m92.08998,92.13079l-0.806,-0.5918l-1.1688,1.5918l1.9748,0l0,-1zm-14.05937,0l0,1l1.91225,0l-1.09096,-1.5705l-0.82129,0.5705zm-0.02812,0l0,-1l-1.99479,0l1.19354,1.5984l0.80125,-0.5984zm6.69734,8.9688l-0.80125,0.5983l0.76218,1.0207l0.81053,-0.9827l-0.77146,-0.6363zm7.07815,-8.5819l-0.75,-0.6615l-0.0109,0.0125l-0.0106,0.0127l0.7715,0.6363zm0.2395,-0.2903l-0.7715,-0.6363l-0.0108,0.0131l-0.0103,0.0134l0.7926,0.6098zm0.0796,-0.0966l0.7714,0.6363l1.3496,-1.6363l-2.121,0l0,1zm0.0897,-3.8937c0,1.51231 -0.3238,2.5132 -0.9028,3.3019l1.6121,1.1837c0.8922,-1.2152 1.2907,-2.66402 1.2907,-4.4856l-2,0zm-7.1375,-7.1375c3.9419,0 7.1375,3.19557 7.1375,7.1375l2,0c0,-5.0465 -4.091,-9.1375 -9.1375,-9.1375l0,2zm-7.1375,7.1375c0,-3.94193 3.19557,-7.1375 7.1375,-7.1375l0,-2c-5.0465,0 -9.1375,4.091 -9.1375,9.1375l2,0zm0.94012,3.3232c-0.59602,-0.858 -0.94012,-1.91484 -0.94012,-3.3232l-2,0c0,1.76311 0.44023,3.2301 1.29754,4.4643l1.64258,-1.1411zm-0.82129,-0.4295l-0.02812,0l0,2l0.02812,0l0,-2zm-0.82937,1.5984l6.69734,8.9687l1.6025,-1.1966l-6.69734,-8.9688l-1.6025,1.1967zm8.27005,9.0067l7.07819,-8.5819l-1.543,-1.2726l-7.07811,8.5819l1.54292,1.2726zm5.75359,-10.1183c-0.0621,0.0807 -0.1276,0.1601 -0.1969,0.2386l1.4999,1.323c0.098,-0.111 0.1921,-0.225 0.2822,-0.3421l-1.5852,-1.2195zm1.564,1.246l0.0796,-0.0965l-1.5429,-1.2725l-0.0796,0.0965l1.5429,1.2725zm-0.6918,-1.7328l-0.0071,0l0,2l0.0071,0l0,-2z"/>
     </g>
     <g stroke="null">
      <path stroke="#0F303F" fill="none" d="m9.54023,1.22989l6.6092,0l0,15.91954l-6.6092,0"/>
     </g>
    </g>
   </svg>