<svg width="405" height="650" viewBox="0 0 405 650" fill="none" xmlns="http://www.w3.org/2000/svg">
<path d="M404 1V648.487L395.175 641L386.618 648.487L378.595 641L369.77 649.289L361.213 641L352.388 649.289L343.831 641L335.273 649.289L326.449 641L317.891 649.289L309.601 641L301.311 649.289L292.486 641L283.662 649.289L275.372 641L266.547 649.289L258.524 641L249.165 649.289L241.142 641L232.585 649.289L224.295 641L215.202 649.289L207.18 641L198.088 649.289L190.065 641L181.24 649.289L172.683 641L163.591 649.289L155.835 641L146.476 649.289L138.186 641L129.628 649.289L121.338 641L112.514 649.289L104.224 641L95.3988 649.289L87.3762 641L78.5514 649.289L69.994 641L61.4366 649.289L53.1466 641L44.3218 649.289L35.7644 641L27.4745 649.289L18.9171 641L10.0922 649.289L1 640.198V1H404Z" stroke="#EAE9E8"/>
</svg>
